<svg width="1760" height="1760" xmlns="http://www.w3.org/2000/svg" xmlns:xlink="http://www.w3.org/1999/xlink" xml:space="preserve" overflow="hidden"><defs><clipPath id="clip0"><rect x="1204" y="359" width="1760" height="1760"/></clipPath><linearGradient x1="2085" y1="393" x2="2085" y2="2082" gradientUnits="userSpaceOnUse" spreadMethod="reflect" id="fill1"><stop offset="0" stop-color="#FFFF00"/><stop offset="0.016129" stop-color="#FFFE00"/><stop offset="0.0322581" stop-color="#FFFE00"/><stop offset="0.0483871" stop-color="#FFFE00"/><stop offset="0.0645161" stop-color="#FFFE00"/><stop offset="0.0806452" stop-color="#FFFE00"/><stop offset="0.0967742" stop-color="#FFFE00"/><stop offset="0.112903" stop-color="#FFFD00"/><stop offset="0.129032" stop-color="#FFFD00"/><stop offset="0.145161" stop-color="#FFFD00"/><stop offset="0.16129" stop-color="#FFFC00"/><stop offset="0.177419" stop-color="#FFFC00"/><stop offset="0.193548" stop-color="#FFFC00"/><stop offset="0.209677" stop-color="#FFFB00"/><stop offset="0.225806" stop-color="#FFFB00"/><stop offset="0.241935" stop-color="#FFFA00"/><stop offset="0.258065" stop-color="#FFFA00"/><stop offset="0.274194" stop-color="#FFF900"/><stop offset="0.290323" stop-color="#FFF800"/><stop offset="0.306452" stop-color="#FFF800"/><stop offset="0.322581" stop-color="#FFF700"/><stop offset="0.33871" stop-color="#FFF600"/><stop offset="0.354839" stop-color="#FFF500"/><stop offset="0.370968" stop-color="#FFF500"/><stop offset="0.387097" stop-color="#FFF400"/><stop offset="0.403226" stop-color="#FFF300"/><stop offset="0.419355" stop-color="#FFF200"/><stop offset="0.435484" stop-color="#FFF100"/><stop offset="0.451613" stop-color="#FFF000"/><stop offset="0.467742" stop-color="#FFEF00"/><stop offset="0.483871" stop-color="#FFEE00"/><stop offset="0.5" stop-color="#FFED00"/><stop offset="0.516129" stop-color="#FFEC00"/><stop offset="0.532258" stop-color="#FFEB00"/><stop offset="0.548387" stop-color="#FFEA00"/><stop offset="0.564516" stop-color="#FFE900"/><stop offset="0.580645" stop-color="#FFE800"/><stop offset="0.596774" stop-color="#FFE700"/><stop offset="0.612903" stop-color="#FFE500"/><stop offset="0.629032" stop-color="#FFE400"/><stop offset="0.645161" stop-color="#FFE300"/><stop offset="0.66129" stop-color="#FFE100"/><stop offset="0.677419" stop-color="#FFE000"/><stop offset="0.693548" stop-color="#FFDF00"/><stop offset="0.709677" stop-color="#FFDD00"/><stop offset="0.725806" stop-color="#FFDC00"/><stop offset="0.741935" stop-color="#FFDB00"/><stop offset="0.758065" stop-color="#FFD900"/><stop offset="0.774194" stop-color="#FFD800"/><stop offset="0.790323" stop-color="#FFD600"/><stop offset="0.806452" stop-color="#FFD400"/><stop offset="0.822581" stop-color="#FFD300"/><stop offset="0.83871" stop-color="#FFD100"/><stop offset="0.854839" stop-color="#FFD000"/><stop offset="0.870968" stop-color="#FFCE00"/><stop offset="0.887097" stop-color="#FFCC00"/><stop offset="0.903226" stop-color="#FFCA00"/><stop offset="0.919355" stop-color="#FFC900"/><stop offset="0.935484" stop-color="#FFC700"/><stop offset="0.951613" stop-color="#FFC500"/><stop offset="0.967742" stop-color="#FFC300"/><stop offset="0.983871" stop-color="#FFC100"/><stop offset="1" stop-color="#FFC000"/></linearGradient><clipPath id="clip2"><rect x="2152" y="1006" width="672" height="672"/></clipPath><clipPath id="clip3"><rect x="2152" y="1006" width="672" height="672"/></clipPath><clipPath id="clip4"><rect x="2152" y="1006" width="672" height="672"/></clipPath><clipPath id="clip5"><rect x="1361" y="713" width="1037" height="1036"/></clipPath><clipPath id="clip6"><rect x="1361" y="713" width="1037" height="1036"/></clipPath><clipPath id="clip7"><rect x="1361" y="713" width="1037" height="1036"/></clipPath></defs><g clip-path="url(#clip0)" transform="translate(-1204 -359)"><path d="M1204 652.339C1204 490.332 1335.33 359 1497.34 359L2670.66 359C2832.67 359 2964 490.332 2964 652.339L2964 1825.66C2964 1987.67 2832.67 2119 2670.66 2119L1497.34 2119C1335.33 2119 1204 1987.67 1204 1825.66Z" fill="#000000" fill-rule="evenodd" fill-opacity="0.101961"/><path d="M1227 1806 2943 1806C2943 1968.37 2814.95 2100 2656.99 2100L1513.01 2100C1355.05 2100 1227 1968.37 1227 1806Z" fill="#D2B400" fill-rule="evenodd"/><path d="M1227 673C1227 510.628 1355.05 379 1513.01 379L2656.99 379C2814.95 379 2943 510.628 2943 673L1227 673Z" fill="#FFE101" fill-rule="evenodd"/><path d="M1227 699.127C1227 549.094 1350.42 393 1496.73 393L2658.86 393C2805.18 393 2943 549.094 2943 699.127L2943 1785.72C2943 1935.75 2805.18 2082 2658.86 2082L1497.94 2081.19C1351.63 2081.19 1227 1935.75 1227 1785.72L1227 699.127Z" fill="url(#fill1)" fill-rule="evenodd"/><path d="M1227 686C1227 524.181 1355.05 393 1513.01 393L2656.99 393C2814.95 393 2943 524.181 2943 686L1227 686Z" fill="#D2A000" fill-rule="evenodd" fill-opacity="0.498039"/><rect x="1227" y="686" width="1716" height="644" fill="#D2A000" fill-opacity="0.498039"/><g clip-path="url(#clip2)"><g clip-path="url(#clip3)"><g clip-path="url(#clip4)"><path d="M2517.16 1579.84 2299.78 1489.68 2459.14 1103.16 2677.22 1193.32 2517.16 1579.84ZM2563.99 1089.88 2612.22 1110.15C2619.21 1112.94 2622 1120.63 2619.21 1126.92 2616.41 1133.91 2608.72 1136.71 2602.43 1133.91L2554.2 1113.64C2547.21 1110.84 2544.42 1103.16 2547.21 1096.86 2549.31 1090.57 2557 1087.08 2563.99 1089.88ZM2731.04 1130.41 2465.43 1020.68C2458.44 1017.88 2451.46 1021.38 2448.66 1027.67L2238.97 1535.11C2236.18 1542.1 2239.67 1549.09 2245.96 1551.89L2511.57 1661.62C2518.56 1664.42 2525.54 1660.92 2528.34 1654.63L2737.33 1147.19C2740.82 1140.9 2737.33 1133.21 2731.04 1130.41L2731.04 1130.41Z"/><path d="M2645.07 1542.1 2628.99 1518.34 2660.44 1497.37 2651.36 1451.24 2690.5 1424.68 2681.41 1378.54 2720.55 1352.68 2712.87 1315.64 2740.12 1310.05 2751.31 1365.26 2712.17 1391.83 2721.25 1437.96 2682.11 1463.82 2691.9 1510.65Z"/><path d="M2236.18 1373.65 2225.69 1317.74 2264.83 1291.87 2255.05 1245.74 2294.19 1219.18 2285.1 1173.05 2331.93 1141.6 2348.01 1164.66 2316.56 1185.63 2325.64 1231.76 2286.5 1258.32 2295.59 1304.46 2256.45 1331.02 2264.13 1368.06Z"/></g></g></g><g clip-path="url(#clip5)"><g clip-path="url(#clip6)"><g clip-path="url(#clip7)"><path d="M875.33 789.08C814.631 758.677 723.53 681.267 714.905 394.163 711.778 288.614 646.336 243.225 591.567 223.819 593.61 216.815 594.627 209.552 594.586 202.256 594.586 159.683 560.073 125.17 517.5 125.17 474.927 125.17 440.414 159.683 440.414 202.256 440.373 209.552 441.39 216.815 443.433 223.819 388.664 243.225 323.222 288.506 320.095 394.163 311.47 680.944 220.369 758.569 159.67 788.972 134.981 801.263 147.38 830.156 161.719 830.156L436.641 830.156C441.259 874.813 481.205 907.271 525.862 902.654 564.142 898.695 594.401 868.436 598.359 830.156L873.281 830.156C887.62 830.156 900.019 801.37 875.33 789.08ZM483.539 202.795C483.539 184.039 498.744 168.834 517.5 168.834 536.256 168.834 551.461 184.039 551.461 202.795 551.415 206.199 550.87 209.577 549.844 212.822 539.176 210.753 528.361 209.527 517.5 209.156L517.5 209.156C506.644 209.594 495.835 210.819 485.156 212.822 484.112 209.581 483.566 206.2 483.539 202.795Z" transform="matrix(1.00097 0 0 1 1362 714)"/></g></g></g></g></svg>